<svg xmlns="http://www.w3.org/2000/svg" viewBox="0 0 204.56 204.9"><defs><style>.cls-1{fill:#c7c7c6;}</style></defs><title>location-icon</title><g id="Layer_2" data-name="Layer 2"><g id="Layer_1-2" data-name="Layer 1"><g id="Pdpb0v.tif"><path class="cls-1" d="M97.47,107c-5.94-.57-11.78-1.13-17.62-1.71-6-.59-12-1.22-18-1.81-5.32-.52-10.65-1-16-1.53s-10.51-1.06-15.76-1.58c-4.6-.45-9.2-.88-13.8-1.33C12.64,98.73,9,98.44,5.39,98A6.34,6.34,0,0,1,.06,92.47,6.46,6.46,0,0,1,4,85.76q9.45-4.22,18.92-8.41L177.47,8.58c6-2.66,12-5.35,18-8a6.35,6.35,0,0,1,9.11,6.11,9.27,9.27,0,0,1-.89,3.07Q179.36,64.67,155,119.54l-36,81.23a6.43,6.43,0,0,1-6.4,4.1,6.34,6.34,0,0,1-5.82-5.13c-.37-2.15-.48-4.35-.7-6.53q-.71-7-1.4-14c-.45-4.53-.88-9.06-1.33-13.59s-.93-9.12-1.39-13.69-.88-9.06-1.33-13.59c-.52-5.25-1.07-10.51-1.59-15.76-.45-4.53-.88-9.06-1.33-13.59C97.65,108.39,97.56,107.77,97.47,107ZM117,180l.25.06,73.19-165.9-166,73.24c1.83.44,3.58.67,5.33.92,7.49,1.08,15,2.19,22.46,3.26,8.52,1.22,17,2.4,25.57,3.62,7.56,1.08,15.11,2.2,22.67,3.28a6.49,6.49,0,0,1,5.8,5.87c.7,5.19,1.48,10.38,2.22,15.57q1.19,8.35,2.36,16.71,1.21,8.56,2.43,17.11t2.38,16.91Q116.33,175.3,117,180Z"/><path class="cls-1" d="M117,180q-.67-4.67-1.33-9.35-1.19-8.46-2.38-16.91t-2.43-17.11q-1.18-8.35-2.36-16.71c-.74-5.19-1.52-10.37-2.22-15.57a6.49,6.49,0,0,0-5.8-5.87c-7.56-1.08-15.11-2.2-22.67-3.28-8.52-1.22-17-2.4-25.57-3.62-7.49-1.07-15-2.18-22.46-3.26-1.75-.25-3.51-.48-5.33-.92l166-73.24L117.25,180Z"/></g></g></g></svg>