<svg xmlns="http://www.w3.org/2000/svg" viewBox="0 0 281.1 279.34"><defs><style>.cls-1{fill:#25c2e1;}</style></defs><title>Asset 1</title><g id="Layer_2" data-name="Layer 2"><g id="Layer_1-2" data-name="Layer 1"><path class="cls-1" d="M0,140.08C.18,43,100-25.66,190.41,9.21c18.51,7.14,19.52,11.45,5.68,25.29Q115,115.63,33.85,196.69c-13.48,13.47-16.52,12.82-23.62-4.62C3.45,175.41-.35,158.16,0,140.08Z"/><path class="cls-1" d="M280.78,178.22c0,14.69.1,29.38-.05,44.06-.05,5-.88,10.16-6.09,12.46-5.75,2.54-9.09-2.13-12.44-5.47-29-28.89-57.82-58-87-86.76-7.67-7.57-7.86-13.75-.08-21.35q30.57-29.85,60.43-60.42c8.47-8.67,14.61-7.55,21.31,2.07,16.4,23.51,22.63,50,23.92,78,.58,12.44.1,24.92.1,37.38Z"/><path class="cls-1" d="M169,279.19c-16.33-.94-38.19,2.23-59.75-2.67-17.12-3.88-33-10.44-47.35-20.61-8.07-5.71-10.27-11.51-2.23-19.39,21-20.52,41.66-41.31,62.36-62.1,6.65-6.68,12.64-6.77,19.4,0Q186.06,219.39,231,264c2.81,2.81,6.3,5.67,4.25,10.27-1.89,4.25-6.09,4.84-10.21,4.85C208.14,279.21,191.25,279.19,169,279.19Z"/></g></g></svg>