<svg xmlns="http://www.w3.org/2000/svg" viewBox="0 0 171.91 147.94"><defs><style>.cls-1{fill:#25c2e1;}</style></defs><title>slider</title><g id="Layer_2" data-name="Layer 2"><g id="Layer_1-2" data-name="Layer 1"><path class="cls-1" d="M0,122.94c2.52-3.31,5.84-4.17,10-4.15,28.14.15,56.28,0,84.42.15,3,0,4.58-.77,6-3.62,4-7.93,11-12.11,19.81-12.05s15.73,4.19,19.69,12.22c1.34,2.72,2.87,3.52,5.69,3.43,6.16-.18,12.32-.11,18.48,0,4.66.06,7.72,2.75,7.79,6.61s-2.92,6.85-7.55,7c-6.49.21-13,0-19.48.17-1.38,0-3.51.77-4,1.79-3.24,7-9.06,10.77-15.86,13.47H115c-5.53-2.66-11.47-5.07-14-11.12-1.66-3.9-4.19-4.3-7.77-4.28-27.65.1-55.3,0-83,.11-4.31,0-7.85-.9-10.23-4.71Z"/><path class="cls-1" d="M0,19.94c2.46-3.62,5.88-4.74,10.21-4.72,27.82.13,55.65,0,83.47.12,3.24,0,5.29-.5,7-3.83,4-7.68,10.81-11.57,19.57-11.51s15.41,4.1,19.44,11.76c1.5,2.85,3.13,3.69,6.13,3.58,5.82-.2,11.66-.13,17.49,0,5.44.09,8.6,2.78,8.57,7s-3.14,6.63-8.7,6.69c-3.33,0-6.68.22-10,0-6.8-.52-11.62.41-16.25,7.29-8.72,13-28.76,10.68-36.25-3.23-1.8-3.35-3.75-4.12-7.27-4.11-27.66.15-55.31,0-83,.16-4.24,0-7.75-.79-10.47-4.14Z"/><path class="cls-1" d="M0,71.94c2.64-5,7.17-5.4,12-4.9s7.69-.65,10.55-5.4c8.4-13.91,29.08-13.2,37.48.73.86,1.42,1.57,2.92,2.49,4.64h42.8q28.72,0,57.43,0c5.8,0,9.12,2.53,9.14,6.85s-3.35,7-9.07,7q-47.94,0-95.89,0c-3.08,0-4.88.56-6.5,3.71-4,7.69-10.71,11.65-19.47,11.65-9,0-15.71-4.11-19.78-12-1.39-2.7-2.9-3.61-5.69-3.34-1.81.17-3.68-.13-5.49.07A9.57,9.57,0,0,1,0,75.94Z"/></g></g></svg>