<svg xmlns="http://www.w3.org/2000/svg" viewBox="0 0 807.06 174.63"><defs><style>.cls-1{fill:#25c2e1;}.cls-2{font-size:97.24px;fill:#7d7d7d;font-family:Circular-Bold, Circular;font-weight:700;}.cls-3{letter-spacing:0em;}.cls-4{letter-spacing:0em;}.cls-5{letter-spacing:0em;}</style></defs><title>where2meet-logo</title><g id="Layer_2" data-name="Layer 2"><g id="Layer_1-2" data-name="Layer 1"><path class="cls-1" d="M0,87.57C.11,26.86,62.52-16,119,5.76c11.57,4.46,12.2,7.16,3.55,15.81Q71.89,72.28,21.16,123c-8.43,8.42-10.33,8-14.76-2.89A81,81,0,0,1,0,87.57Z"/><path class="cls-1" d="M175.53,111.41c0,9.18.06,18.36,0,27.55,0,3.12-.55,6.35-3.8,7.79-3.59,1.59-5.68-1.33-7.78-3.42-18.14-18.06-36.15-36.26-54.37-54.24-4.8-4.73-4.91-8.6-.05-13.35Q128.6,57.08,147.27,38c5.29-5.42,9.13-4.72,13.32,1.29,10.25,14.7,14.15,31.28,15,48.78.36,7.77.06,15.58.06,23.37Z"/><path class="cls-1" d="M105.65,174.53c-10.21-.59-23.87,1.39-37.35-1.67A81.81,81.81,0,0,1,38.69,160c-5-3.57-6.42-7.2-1.39-12.12C50.41,135,63.34,122,76.28,109c4.16-4.18,7.9-4.23,12.13,0q27.91,28.09,56,56c1.75,1.76,3.94,3.55,2.66,6.42-1.18,2.66-3.81,3-6.38,3C130.12,174.55,119.56,174.53,105.65,174.53Z"/><text class="cls-2" transform="translate(216.07 128.81)">Whe<tspan class="cls-3" x="210.42" y="0">r</tspan><tspan class="cls-4" x="248.24" y="0">e2</tspan><tspan class="cls-5" x="354.81" y="0">M</tspan><tspan x="447.18" y="0">eet</tspan></text></g></g></svg>